PathFileType	4	(X/Y/Z)	Patient4_TMGait_0pt5_01_left_12.trc.trc
DataRate	CameraRate	NumFrames	NumMarkers	Units	OrigDataRate	OrigDataStartFrame	OrigNumFrames
76.502732240437	76.502732240437	4	33	mm	76.502732240437	89	       141
Frame#	Time	L.ASIS			Sacral			L.Shoulder			Chest			R.Shoulder			Neck			R.ASIS			R.Thigh.Superior			R.Thigh.Lateral			R.Thigh.Inferior			R.Patella			L.Thigh.Superior			L.Thigh.Lateral			L.Thigh.Inferior			L.Patella			L.Shank.Superior			L.Shank.Lateral			L.Shank.Inferior			R.Shank.Superior			R.Shank.Lateral			R.Shank.Inferior			R.Heel			R.Midfoot.Superior			R.Midfoot.Lateral			R.Toe			L.Heel			L.Midfoot.Lateral			L.Midfoot.Superior			L.Toe			L.Elbow			L.Wrist			R.Elbow			R.Wrist			
		X1	Y1	Z1	X2	Y2	Z2	X3	Y3	Z3	X4	Y4	Z4	X5	Y5	Z5	X6	Y6	Z6	X7	Y7	Z7	X8	Y8	Z8	X9	Y9	Z9	X10	Y10	Z10	X11	Y11	Z11	X12	Y12	Z12	X13	Y13	Z13	X14	Y14	Z14	X15	Y15	Z15	X16	Y16	Z16	X17	Y17	Z17	X18	Y18	Z18	X19	Y19	Z19	X20	Y20	Z20	X21	Y21	Z21	X22	Y22	Z22	X23	Y23	Z23	X24	Y24	Z24	X25	Y25	Z25	X26	Y26	Z26	X27	Y27	Z27	X28	Y28	Z28	X29	Y29	Z29	X30	Y30	Z30	X31	Y31	Z31	X32	Y32	Z32	X33	Y33	Z33	

89	17.190285714286	811.442261347109	959.273154373972	324.433683474710	589.839728752360	996.337628306210	470.424961057989	742.508294477732	1434.927517418460	296.932796797138	840.997897112223	1371.113134599650	463.457023195589	742.067105139180	1434.358256262124	634.461963139048	729.893490686883	1494.790865994653	449.060145359581	814.403572278943	944.554013825764	598.841965785390	872.503638931060	749.148431071493	575.018099545096	795.845853091829	636.101649174006	632.143808780408	881.205804208499	588.171298229819	557.408404713730	887.376731914366	500.711876491998	564.167358700663	841.140497748906	734.157101519854	352.806035880721	746.118662112789	624.161689362794	288.346817498663	822.869911358506	536.714132209862	350.805681169378	812.229403744376	453.255555223908	350.516632921022	749.389784739421	394.063157275325	345.039594030905	616.074685237714	334.893661400093	294.245255952565	612.542820240225	209.384814127982	357.352197651936	867.159564429233	410.957122122828	572.245628573684	800.525798897237	302.490062012518	629.958770391863	855.885139481052	210.775878034825	573.038566462953	736.185113847714	42.430131007841	535.483047635549	903.998776483102	98.279979609474	582.356764816866	814.735108072036	36.282735811826	616.133639725314	1022.720952011490	47.049720459669	617.683150314966	429.426831484035	116.837631294148	395.246248293543	495.857069806281	81.721000209589	317.754953933490	595.219428276084	111.746915011247	339.882456608512	693.718867442390	33.474421295516	318.154865510964	759.258867747533	1084.288561217945	165.960974891687	949.991660533816	905.144548642818	156.743625485059	679.813071473531	1086.418596710206	733.622324882629	771.943494943394	841.611929102932	741.074356444928	
90	17.203357142857	809.883938360498	959.979512353638	326.720027027203	589.377878356165	997.145767633887	474.246300028195	741.385673855309	1435.799211479823	300.059183535985	841.109184724386	1371.582911340734	465.703720836500	743.613796717745	1434.757588542620	637.409826980772	729.824743477526	1495.397183113208	452.321282642558	814.754693045971	945.128337257869	601.058038231903	870.919245132130	748.745947972550	577.700004616734	792.876743011463	636.287454646403	634.208412240500	877.754035221210	587.720199359102	559.371779657735	883.045957911345	500.373755812686	565.559012326616	845.467186444009	736.777153285627	355.272769797592	755.164591903472	624.148786195548	290.247177885835	835.027409818430	538.521800209249	352.608157446455	825.603318904333	453.665234226621	351.468508956045	760.548510334532	394.652975048194	346.078382869841	624.958677089205	340.823079257527	295.232592577122	617.051718096826	215.225094604651	357.504289003231	862.484774860432	410.752085012913	573.472156888679	795.551779447197	302.453784857364	630.956774496656	850.311267323752	210.633452870425	573.601901716087	729.864291310949	42.505411115199	535.736224533831	897.759755261585	98.348614783665	582.676748692264	808.404934585535	36.341212337088	616.423128750170	1016.431508223985	46.956594376298	617.959927181554	430.281459668925	132.197699186043	394.772949196946	494.668518513973	92.938510922098	317.455295196539	595.673444213625	116.793957899772	339.623754112432	688.287381121079	32.554825340049	318.368102129950	753.444909361632	1084.218432404180	170.793861382053	934.081228885056	894.733597091117	160.681118391852	688.647610985033	1085.493132560159	737.915958019451	792.808326161577	845.732973183382	743.239194113365	
91	17.216428571429	808.065584324056	960.412283706650	328.801871075928	588.672321221873	997.795989092830	478.032709222007	740.037202124714	1436.393625409527	303.019758697052	841.146247372165	1371.793363082862	467.697579088147	745.264905587408	1434.958801920326	640.200179935099	729.731507216851	1495.802124800568	455.412289293754	814.924818546108	945.521413590299	603.072716590224	869.090586426506	748.228034006940	580.068720714516	789.929949536813	636.375468208814	636.195158767642	874.160684648157	587.221847123194	561.067286428729	878.639104764359	499.955464158021	566.816763680771	849.744828564829	739.581346031611	357.674192616191	764.411226360558	624.405265559169	292.080474466720	847.233864359853	540.811054832620	354.537795007707	839.186549319834	454.643661847257	352.753235734190	772.168505702310	395.679561116597	347.317013938829	634.593064169656	347.030250253770	296.325441244688	622.377092965991	221.511797880739	357.866185030982	857.728419777146	410.455711464992	574.602643896401	790.510556164604	302.323536242501	631.877476747721	844.658310636591	210.408035086085	574.085055284382	723.453298570583	42.538754900071	535.933273507255	891.432846449276	98.334461967321	582.931174006717	801.974902673287	36.351243136069	616.663881270324	1010.053800944626	46.763667494004	618.199366436154	432.354099071028	147.895237018329	394.400859551746	494.684126258680	104.814285487879	317.241117903982	597.051915371511	122.490475172616	339.634077002193	683.753167910277	31.800627815103	318.676417467887	747.730498194263	1083.911960922661	175.526151841540	917.446671221465	884.503618905712	164.751276309250	697.623923723152	1084.735497650512	742.443826706093	814.008617257838	850.823799319116	745.318754953042	
92	17.229500000000	806.028979866977	960.591103357891	330.682820394927	587.741059453614	998.297713074401	481.733911040499	738.471468123291	1436.729372433097	305.778564080799	841.089992100211	1371.770603109163	469.421504616685	746.976066568037	1434.980931290789	642.804150503792	729.614492074650	1496.029746869100	458.297595696296	814.903056795641	945.749071307511	604.896702080111	867.083926361994	747.645087839906	582.078406282458	787.112098187165	636.389937043264	638.099917822192	870.531554233555	586.698996692088	562.504291518345	874.249618309789	499.470203330334	567.968218169586	853.836295475699	742.578656293935	360.028090829581	773.617645442491	625.020587717104	293.850544408787	859.193262186068	543.630566222266	356.574244702599	852.700945293707	456.251650147735	354.322126716903	784.001075710928	397.197313459723	348.722192672127	644.742165817172	353.377814052944	297.524589412046	628.475085576643	228.041668170136	358.427917946674	852.974969066392	410.077999698321	575.643936630428	785.474508099524	302.121612007790	632.746206083108	838.969980760089	210.109800069646	574.499984449841	716.962996938279	42.542291301537	536.089760834137	885.030515029036	98.253835268776	583.127755858465	795.460510831815	36.324826243486	616.863605777774	1003.602530126461	46.489321638102	618.398378701811	435.681837327344	163.260612536152	394.165939035995	496.063075904554	116.816006959542	317.144946709038	599.486472595390	128.628235517345	339.906134754975	680.537093789571	31.337480458805	319.083386109394	742.081497241131	1083.369487737009	180.149327398122	900.145506450354	874.614732254913	168.945682253961	706.754380834967	1084.152720286640	747.123443854065	835.384262141169	856.896555083448	747.261851480674	
